# xmcd
#
# Track frame offsets:
#	150
#	14924
#	39590
#	54657
#	66450
#	87055
#	105127
#	117101
#	133049
#	145082
#	160849
#	177661
#	191066
#	205091
#	227427
#	242946
#	258483
#	273863
#
# Disc length: 3855 seconds
#
# Revision: 0
# Processed by: cddbd v1.5.2PL0 Copyright (c) Steve Scherf et al.
# Submitted via: EasyCDDAExtractor 10.0.1.1
#
DISCID=010f0d12
DTITLE=Various Artist - Irish Favouirest - Riverdance and Lord Of The Dance
DYEAR=1900
DGENRE=
TTITLE0=Celtic Roots - Riverdance
TTITLE1=Sheoda - Lift The Wings
TTITLE2=OSNA - Reels Set
TTITLE3=Celtic Roots - The Derry Air
TTITLE4=Sheoda - She Moved Through The Fair
TTITLE5=Na Connerys - Dublin Reels
TTITLE6=Celtic Roots - Mise Eire
TTITLE7=OSNA - The Scholar - Greenfields
TTITLE8=Celtic Roots - Lord Of The Dance
TTITLE9=Sheoda - Sally Gardens
TTITLE10=Na Connerys - Salamanca Reels
TTITLE11=OSNA - Inis Ge
TTITLE12=Na Connerys - The Clare Jig Set
TTITLE13=Sheoda - Carrickgergus
TTITLE14=Na Connerys - Reels Set
TTITLE15=Celtic Roots - Molly Malone
TTITLE16=Celtic Roots - The Coolin
TTITLE17=OSNA - The Final Set
EXTD=
EXTT0=
EXTT1=
EXTT2=
EXTT3=
EXTT4=
EXTT5=
EXTT6=
EXTT7=
EXTT8=
EXTT9=
EXTT10=
EXTT11=
EXTT12=
EXTT13=
EXTT14=
EXTT15=
EXTT16=
EXTT17=
PLAYORDER=
